<?xml version="1.0" encoding="utf-8"?>
<!-- Generator: Adobe Illustrator 16.0.0, SVG Export Plug-In . SVG Version: 6.00 Build 0)  -->
<!DOCTYPE svg PUBLIC "-//W3C//DTD SVG 1.1//EN" "http://www.w3.org/Graphics/SVG/1.1/DTD/svg11.dtd">
<svg version="1.1" id="RSS_Icon_only_licensed_for_Julian_Motz__x28_julianmotz.com_x29_"
	 xmlns="http://www.w3.org/2000/svg" xmlns:xlink="http://www.w3.org/1999/xlink" x="0px" y="0px" width="108.418px"
	 height="108.418px" viewBox="0 0 108.418 108.418" enable-background="new 0 0 108.418 108.418" xml:space="preserve">
<rect id="BG" x="-95.791" y="-95.791" display="none" fill="#1F1F26" width="300" height="300"/>
<g id="icon_-_must_not_be_reused">
	<path fill="#2BAA91" d="M16.188,76.037c-7.462,0-14.139,5.316-15.789,12.6c-1.66,7.33,2.099,15.038,8.894,18.243
		c6.818,3.218,15.182,1.158,19.759-4.815c4.583-5.983,4.353-14.608-0.54-20.34C25.452,78.139,20.9,76.037,16.188,76.037z"/>
	<path fill="#EDB250" d="M28.846,39.569C19.733,35.747,9.88,33.79,0,33.79c0,4.008,0,8.017,0,12.026c0,1.607,0,3.214,0,4.822
		c0,0.03,4.152,0.197,4.598,0.232c1.879,0.148,3.751,0.388,5.606,0.719c14.348,2.56,27.396,10.679,36.104,22.356
		c4.344,5.824,7.573,12.466,9.456,19.484c0.971,3.62,1.584,7.336,1.834,11.075c0.063,0.918,0.103,1.837,0.12,2.756
		c0.005,0.255-0.186,1.158,0.142,1.158c0.613,0,1.228,0,1.842,0c4.973,0,9.947,0,14.92,0c0-14.846-4.475-29.521-12.805-41.813
		C53.719,54.652,42.162,45.156,28.846,39.569z"/>
	<path fill="#E86A5B" d="M99.314,64.864C93.514,51.655,85.047,39.652,74.58,29.728C64.087,19.781,51.619,11.957,38.081,6.877
		C25.929,2.317,12.977,0,0,0c0,4.009,0,8.017,0,12.026c0,1.607,0,3.214,0,4.822c0-0.12,9.395,0.523,10.318,0.626
		c14.623,1.641,28.758,6.865,40.94,15.116c11.932,8.081,21.9,18.978,28.875,31.587c7.204,13.021,11.113,27.742,11.372,42.617
		c0.003,0.157,0.003,1.624,0.033,1.624c0.106,0,0.212,0,0.317,0c0.545,0,1.09,0,1.636,0c1.968,0,3.937,0,5.905,0
		c3.006,0,6.015,0,9.021,0C108.418,93.465,105.33,78.559,99.314,64.864z"/>
</g>
</svg>
